<svg width="41" height="41" viewBox="0 0 41 41" fill="none" xmlns="http://www.w3.org/2000/svg">
<path d="M29.1673 34.4758C27.5339 36.0591 25.7506 35.8091 24.0339 35.0591C22.2173 34.2924 20.5506 34.2591 18.6339 35.0591C16.2339 36.0924 14.9673 35.7924 13.5339 34.4758C5.4006 26.0924 6.6006 13.3258 15.8339 12.8591C18.0839 12.9758 19.6506 14.0924 20.9673 14.1924C22.9339 13.7924 24.8173 12.6424 26.9173 12.7924C29.4339 12.9924 31.3339 13.9924 32.5839 15.7924C27.3839 18.9091 28.6173 25.7591 33.3839 27.6758C32.4339 30.1758 31.2006 32.6591 29.1506 34.4924L29.1673 34.4758ZM20.8006 12.7591C20.5506 9.04245 23.5673 5.97578 27.0339 5.67578C27.5173 9.97578 23.1339 13.1758 20.8006 12.7591Z" fill="black"/>
</svg>
